<svg width="26" height="23" viewBox="0 0 26 23" xmlns="http://www.w3.org/2000/svg">
  <path d="M6.45208 13.3371L0.691574 11.1871C0.10649 10.9678 0.101407 10.1418 0.684824 9.9168L24.3261 0.796705C24.8273 0.602872 25.3444 1.04196 25.2353 1.56829L20.9927 21.9759C20.8927 22.4577 20.3278 22.6762 19.929 22.3864L14.1375 18.1816C13.7858 17.9263 13.3063 17.94 12.9698 18.2142L9.75875 20.8319C9.386 21.1366 8.82442 20.9669 8.68175 20.5076L6.45208 13.3371ZM19.5806 5.25863L8.32242 12.1926C7.89092 12.4589 7.68775 12.98 7.82717 13.4678L9.04442 17.7449C9.13084 18.048 9.57075 18.0169 9.61267 17.7037L9.92917 15.3582C9.98884 14.9166 10.1995 14.5098 10.5261 14.2058L19.8173 5.56913C19.9911 5.40796 19.7829 5.13438 19.5806 5.25863Z"/>
</svg>
