<svg width="25" height="15" viewBox="0 0 25 15" xmlns="http://www.w3.org/2000/svg">
  <path d="M12.2923 14.4424H13.733C13.733 14.4424 14.1682 14.3947 14.3904 14.1551C14.5949 13.9353 14.5883 13.5223 14.5883 13.5223C14.5883 13.5223 14.5602 11.5892 15.4574 11.3045C16.3418 11.0241 17.4776 13.1729 18.6813 13.9991C19.5916 14.6244 20.2833 14.4873 20.2833 14.4873L23.5021 14.4424C23.5021 14.4424 25.1859 14.3387 24.3875 13.0148C24.322 12.9065 23.9225 12.0355 21.9943 10.2457C19.9761 8.37244 20.2464 8.67543 22.6775 5.43511C24.1581 3.46173 24.75 2.25696 24.5652 1.74096C24.3888 1.2495 23.2999 1.3794 23.2999 1.3794L19.6757 1.40197C19.6757 1.40197 19.4071 1.36533 19.2078 1.48443C19.0131 1.60124 18.8878 1.87348 18.8878 1.87348C18.8878 1.87348 18.3142 3.40055 17.5492 4.69923C15.9354 7.43958 15.2902 7.5842 15.0265 7.41405C14.4129 7.01748 14.5661 5.82089 14.5661 4.97081C14.5661 2.31521 14.9689 1.20794 13.7818 0.921309C13.3878 0.826092 13.0979 0.763269 12.0904 0.753125C10.7973 0.73971 9.70282 0.757052 9.08309 1.0607C8.67081 1.26258 8.35276 1.71249 8.54647 1.73834C8.78598 1.77041 9.32849 1.8846 9.61611 2.27627C9.98748 2.78147 9.9744 3.91622 9.9744 3.91622C9.9744 3.91622 10.1877 7.04235 9.47606 7.43074C8.98754 7.69709 8.31743 7.15327 6.8787 4.66716C6.14151 3.39368 5.58493 1.98604 5.58493 1.98604C5.58493 1.98604 5.47761 1.72296 5.28619 1.58226C5.05388 1.41179 4.72929 1.35747 4.72929 1.35747L1.28545 1.38005C1.28545 1.38005 0.768462 1.39445 0.578682 1.61924C0.409844 1.81916 0.565267 2.23275 0.565267 2.23275C0.565267 2.23275 3.26144 8.54062 6.31427 11.7194C9.11352 14.6338 12.2923 14.4424 12.2923 14.4424Z"/>
</svg>
