<svg xmlns="http://www.w3.org/2000/svg" width="35" height="41" viewBox="0 0 1482 1792">
  <path
    d="M944 1244v211c0 44.7-13 67-39 67-15.3 0-30.3-7.3-45-22v-301c14.7-14.7 29.7-22 45-22 26 0 39 22.3 39 67zm338 1v46h-90v-46c0-45.3 15-68 45-68s45 22.7 45 68zm-966-218h107v-94H111v94h105v569h100v-569zm288 569h89v-494h-89v378c-20 28-39 42-57 42-12 0-19-7-21-21-.7-2-1-13.7-1-35v-364h-89v391c0 32.7 2.7 57 8 73 8 24.7 27.3 37 58 37 32 0 66-20.3 102-61v54zm429-148v-197c0-48.7-3-81.7-9-99-11.3-37.3-35-56-71-56-33.3 0-64.3 18-93 54V933h-89v663h89v-48c30 36.7 61 55 93 55 36 0 59.7-18.3 71-55 6-18 9-51.3 9-100zm338-10v-13h-91c0 34-.7 54.3-2 61-4.7 24-18 36-40 36-30.7 0-46-23-46-69v-87h179v-103c0-52.7-9-91.3-27-116-26-34-61.3-51-106-51-45.3 0-81 17-107 51-18.7 24.7-28 63.3-28 116v173c0 52.7 9.7 91.3 29 116 26 34 62 51 108 51 48 0 84-17.7 108-53 12-18 19-36 21-54 1.3-6 2-25.3 2-58zM763 525V315c0-46-14.3-69-43-69s-43 23-43 69v210c0 46.7 14.3 70 43 70s43-23.3 43-70zm719 751c0 156-8.7 272.7-26 350-9.3 39.3-28.7 72.3-58 99s-63.3 42-102 46c-122.7 14-307.7 21-555 21s-432.3-7-555-21c-38.7-4-72.8-19.3-102.5-46s-48.8-59.7-57.5-99c-17.3-74.7-26-191.3-26-350 0-156 8.7-272.7 26-350 9.3-39.3 28.7-72.3 58-99s63.7-42.3 103-47c122-13.3 306.7-20 554-20s432.3 6.7 555 20c38.7 4.7 72.8 20.3 102.5 47s48.8 59.7 57.5 99c17.3 74.7 26 191.3 26 350zM484 0h102L465 399v271H365V399c-9.3-49.3-29.7-120-61-212-24.7-68.7-46.3-131-65-187h106l71 263L484 0zm370 333v175c0 54-9.3 93.3-28 118-25.3 34-60.7 51-106 51-44.7 0-79.7-17-105-51-18.7-25.3-28-64.7-28-118V333c0-53.3 9.3-92.3 28-117 25.3-34 60.3-51 105-51 45.3 0 80.7 17 106 51 18.7 24.7 28 63.7 28 117zm335-162v499h-91v-55c-35.3 41.3-69.7 62-103 62-30.7 0-50.3-12.3-59-37-5.3-16-8-41-8-75V171h91v367c0 22 .3 33.7 1 35 2 14.7 9 22 21 22 18 0 37-14.3 57-43V171h91z"/>
</svg>
